<svg width="49" height="48" viewBox="0 0 49 48" fill="none" xmlns="http://www.w3.org/2000/svg">
<path d="M49 13.9748V0.5C40.4411 0.5 32.0961 3.41054 26.1048 8.47706L24.5 9.77065L22.8952 8.47706C16.7969 3.41054 8.55895 0.5 0 0.5V13.9748C0 17.6399 1.28386 21.0894 3.42359 24C1.28386 26.9105 0 30.3601 0 34.0252V47.5C8.55895 47.5 16.9039 44.5895 22.8952 39.5229L24.5 38.2294C20.3275 35.75 17.7598 31.3303 17.7598 26.3716V21.6284C17.7598 16.7775 20.3275 12.25 24.5 9.77065C28.6725 12.25 31.2402 16.7775 31.2402 21.6284V26.3716C31.2402 31.2225 28.6725 35.75 24.5 38.2294L26.1048 39.5229C32.203 44.5895 40.4411 47.5 49 47.5V34.0252C49 30.3601 47.7161 26.9105 45.5764 24C47.7161 21.0894 49 17.6399 49 13.9748Z" fill="#C3F25C"/>
</svg>
