<svg width="271" height="382" viewBox="0 0 271 382" fill="none" xmlns="http://www.w3.org/2000/svg">
<rect width="271" height="382" rx="20" fill="#F2F2F2"/>
<path d="M190.112 327.915C188.89 329.688 188.236 331.79 188.235 333.943C188.234 336.095 188.886 338.198 190.106 339.972C191.326 341.746 193.056 343.107 195.066 343.877C197.077 344.646 199.274 344.787 201.367 344.28H201.396C201.789 346.396 202.815 348.343 204.338 349.864C205.861 351.384 207.81 352.407 209.926 352.796C212.043 353.185 214.228 352.922 216.192 352.043C218.156 351.164 219.808 349.709 220.927 347.871C222.701 349.088 224.803 349.739 226.955 349.737C229.107 349.734 231.207 349.079 232.978 347.857C234.75 346.636 236.109 344.905 236.876 342.895C237.643 340.885 237.782 338.689 237.274 336.598V336.572C239.39 336.179 241.337 335.153 242.857 333.63C244.378 332.107 245.4 330.158 245.789 328.042C246.178 325.925 245.916 323.74 245.036 321.776C244.157 319.812 242.702 318.16 240.864 317.041C242.082 315.267 242.733 313.165 242.73 311.013C242.728 308.861 242.073 306.761 240.851 304.99C239.629 303.218 237.899 301.859 235.889 301.092C233.878 300.325 231.682 300.186 229.591 300.694H229.565C229.174 298.577 228.149 296.629 226.625 295.108C225.102 293.586 223.153 292.564 221.035 292.175C218.918 291.786 216.732 292.049 214.768 292.93C212.803 293.811 211.153 295.268 210.034 297.107C208.26 295.89 206.158 295.239 204.007 295.242C201.855 295.244 199.755 295.899 197.983 297.121C196.212 298.342 194.853 300.073 194.086 302.083C193.319 304.094 193.18 306.289 193.688 308.38V308.406C191.572 308.8 189.625 309.826 188.105 311.349C186.585 312.872 185.564 314.821 185.175 316.938C184.786 319.054 185.049 321.239 185.929 323.203C186.808 325.167 188.263 326.818 190.101 327.937L190.112 327.915Z" fill="#C3F25C"/>
<path d="M35.44 49V36.22H37.456V49H35.44ZM45.2073 48.514C45.0393 48.598 44.8293 48.688 44.5773 48.784C44.3253 48.88 44.0373 48.964 43.7133 49.036C43.4013 49.108 43.0773 49.144 42.7413 49.144C42.3333 49.144 41.9553 49.072 41.6073 48.928C41.2593 48.784 40.9773 48.556 40.7613 48.244C40.5573 47.92 40.4553 47.506 40.4553 47.002V41.116H39.2133V39.586H40.4553V36.49H42.4353V39.586H44.4873V41.116H42.4353V46.372C42.4593 46.696 42.5613 46.936 42.7413 47.092C42.9333 47.248 43.1673 47.326 43.4433 47.326C43.7193 47.326 43.9833 47.278 44.2353 47.182C44.4873 47.086 44.6733 47.008 44.7933 46.948L45.2073 48.514ZM45.7018 40.216L46.0798 38.092H45.4678V35.86H47.3938V38.11L46.8178 40.216H45.7018ZM51.6141 49.18C50.8221 49.18 50.0721 49.054 49.3641 48.802C48.6561 48.538 48.0501 48.148 47.5461 47.632L48.2841 46.3C48.8241 46.78 49.3641 47.128 49.9041 47.344C50.4561 47.56 51.0021 47.668 51.5421 47.668C52.0941 47.668 52.5441 47.566 52.8921 47.362C53.2401 47.146 53.4141 46.834 53.4141 46.426C53.4141 46.126 53.3241 45.904 53.1441 45.76C52.9641 45.616 52.7001 45.49 52.3521 45.382C52.0161 45.274 51.6081 45.154 51.1281 45.022C50.4561 44.818 49.8921 44.608 49.4361 44.392C48.9801 44.164 48.6381 43.888 48.4101 43.564C48.1821 43.24 48.0681 42.826 48.0681 42.322C48.0681 41.71 48.2241 41.188 48.5361 40.756C48.8481 40.324 49.2801 39.994 49.8321 39.766C50.3961 39.538 51.0441 39.424 51.7761 39.424C52.4601 39.424 53.0901 39.532 53.6661 39.748C54.2541 39.952 54.7701 40.276 55.2141 40.72L54.3681 42.034C53.9481 41.65 53.5161 41.368 53.0721 41.188C52.6401 41.008 52.1721 40.918 51.6681 40.918C51.3801 40.918 51.1041 40.954 50.8401 41.026C50.5761 41.086 50.3541 41.206 50.1741 41.386C50.0061 41.554 49.9221 41.794 49.9221 42.106C49.9221 42.358 49.9941 42.562 50.1381 42.718C50.2821 42.874 50.4981 43.006 50.7861 43.114C51.0741 43.222 51.4281 43.342 51.8481 43.474C52.5801 43.69 53.2041 43.906 53.7201 44.122C54.2361 44.326 54.6321 44.596 54.9081 44.932C55.1961 45.256 55.3401 45.706 55.3401 46.282C55.3401 47.194 54.9981 47.908 54.3141 48.424C53.6421 48.928 52.7421 49.18 51.6141 49.18ZM64.9032 49.18C64.1112 49.18 63.3612 49.054 62.6532 48.802C61.9452 48.538 61.3392 48.148 60.8352 47.632L61.5732 46.3C62.1132 46.78 62.6532 47.128 63.1932 47.344C63.7452 47.56 64.2912 47.668 64.8312 47.668C65.3832 47.668 65.8332 47.566 66.1812 47.362C66.5292 47.146 66.7032 46.834 66.7032 46.426C66.7032 46.126 66.6132 45.904 66.4332 45.76C66.2532 45.616 65.9892 45.49 65.6412 45.382C65.3052 45.274 64.8972 45.154 64.4172 45.022C63.7452 44.818 63.1812 44.608 62.7252 44.392C62.2692 44.164 61.9272 43.888 61.6992 43.564C61.4712 43.24 61.3572 42.826 61.3572 42.322C61.3572 41.71 61.5132 41.188 61.8252 40.756C62.1372 40.324 62.5692 39.994 63.1212 39.766C63.6852 39.538 64.3332 39.424 65.0652 39.424C65.7492 39.424 66.3792 39.532 66.9552 39.748C67.5432 39.952 68.0592 40.276 68.5032 40.72L67.6572 42.034C67.2372 41.65 66.8052 41.368 66.3612 41.188C65.9292 41.008 65.4612 40.918 64.9572 40.918C64.6692 40.918 64.3932 40.954 64.1292 41.026C63.8652 41.086 63.6432 41.206 63.4632 41.386C63.2952 41.554 63.2112 41.794 63.2112 42.106C63.2112 42.358 63.2832 42.562 63.4272 42.718C63.5712 42.874 63.7872 43.006 64.0752 43.114C64.3632 43.222 64.7172 43.342 65.1372 43.474C65.8692 43.69 66.4932 43.906 67.0092 44.122C67.5252 44.326 67.9212 44.596 68.1972 44.932C68.4852 45.256 68.6292 45.706 68.6292 46.282C68.6292 47.194 68.2872 47.908 67.6032 48.424C66.9312 48.928 66.0312 49.18 64.9032 49.18ZM75.743 49.18C74.987 49.18 74.321 49 73.745 48.64C73.169 48.28 72.713 47.812 72.377 47.236V52.834H70.397V39.586H72.143V41.278C72.503 40.714 72.971 40.264 73.547 39.928C74.123 39.592 74.765 39.424 75.473 39.424C76.121 39.424 76.715 39.556 77.255 39.82C77.795 40.072 78.263 40.426 78.659 40.882C79.055 41.338 79.361 41.86 79.577 42.448C79.805 43.024 79.919 43.636 79.919 44.284C79.919 45.184 79.739 46.006 79.379 46.75C79.031 47.494 78.539 48.088 77.903 48.532C77.279 48.964 76.559 49.18 75.743 49.18ZM75.095 47.488C75.515 47.488 75.893 47.398 76.229 47.218C76.577 47.038 76.871 46.798 77.111 46.498C77.363 46.198 77.555 45.856 77.687 45.472C77.819 45.088 77.885 44.692 77.885 44.284C77.885 43.852 77.813 43.444 77.669 43.06C77.525 42.676 77.315 42.34 77.039 42.052C76.775 41.764 76.463 41.536 76.103 41.368C75.755 41.2 75.371 41.116 74.951 41.116C74.699 41.116 74.435 41.164 74.159 41.26C73.883 41.356 73.625 41.488 73.385 41.656C73.145 41.824 72.935 42.022 72.755 42.25C72.575 42.478 72.449 42.718 72.377 42.97V45.436C72.545 45.82 72.767 46.168 73.043 46.48C73.319 46.78 73.637 47.026 73.997 47.218C74.357 47.398 74.723 47.488 75.095 47.488ZM86.9917 41.296C86.2237 41.308 85.5397 41.482 84.9397 41.818C84.3517 42.154 83.9317 42.628 83.6797 43.24V49H81.6997V39.586H83.5357V41.692C83.8597 41.044 84.2857 40.528 84.8137 40.144C85.3417 39.748 85.8997 39.532 86.4877 39.496C86.6077 39.496 86.7037 39.496 86.7757 39.496C86.8597 39.496 86.9317 39.502 86.9917 39.514V41.296ZM88.4321 49V39.586H90.4121V49H88.4321ZM88.4321 38.038V35.86H90.4121V38.038H88.4321ZM101.234 49H99.2535V43.726C99.2535 42.85 99.1095 42.208 98.8215 41.8C98.5455 41.392 98.1315 41.188 97.5795 41.188C97.1955 41.188 96.8115 41.284 96.4275 41.476C96.0555 41.668 95.7195 41.932 95.4195 42.268C95.1195 42.592 94.9035 42.97 94.7715 43.402V49H92.7915V39.586H94.5915V41.476C94.8315 41.056 95.1435 40.696 95.5275 40.396C95.9235 40.084 96.3675 39.844 96.8595 39.676C97.3515 39.508 97.8735 39.424 98.4255 39.424C98.9895 39.424 99.4515 39.526 99.8115 39.73C100.184 39.934 100.472 40.216 100.676 40.576C100.892 40.924 101.036 41.332 101.108 41.8C101.192 42.256 101.234 42.742 101.234 43.258V49ZM107.258 49.09C106.622 49.09 106.04 48.964 105.512 48.712C104.984 48.448 104.528 48.094 104.144 47.65C103.772 47.206 103.478 46.696 103.262 46.12C103.058 45.544 102.956 44.938 102.956 44.302C102.956 43.63 103.064 43 103.28 42.412C103.496 41.824 103.796 41.308 104.18 40.864C104.576 40.408 105.038 40.054 105.566 39.802C106.094 39.55 106.682 39.424 107.33 39.424C108.086 39.424 108.746 39.604 109.31 39.964C109.886 40.324 110.36 40.792 110.732 41.368V39.586H112.478V48.73C112.478 49.642 112.256 50.416 111.812 51.052C111.38 51.688 110.786 52.174 110.03 52.51C109.274 52.846 108.422 53.014 107.474 53.014C106.43 53.014 105.566 52.834 104.882 52.474C104.198 52.114 103.616 51.622 103.136 50.998L104.252 49.954C104.612 50.458 105.074 50.842 105.638 51.106C106.214 51.37 106.826 51.502 107.474 51.502C108.014 51.502 108.512 51.4 108.968 51.196C109.436 51.004 109.808 50.698 110.084 50.278C110.36 49.87 110.498 49.354 110.498 48.73V47.29C110.162 47.854 109.7 48.298 109.112 48.622C108.524 48.934 107.906 49.09 107.258 49.09ZM107.906 47.488C108.206 47.488 108.494 47.44 108.77 47.344C109.046 47.236 109.298 47.098 109.526 46.93C109.766 46.75 109.97 46.552 110.138 46.336C110.306 46.108 110.426 45.868 110.498 45.616V43.15C110.342 42.742 110.12 42.388 109.832 42.088C109.544 41.776 109.22 41.536 108.86 41.368C108.5 41.2 108.134 41.116 107.762 41.116C107.33 41.116 106.94 41.212 106.592 41.404C106.256 41.584 105.968 41.83 105.728 42.142C105.488 42.442 105.302 42.784 105.17 43.168C105.038 43.552 104.972 43.948 104.972 44.356C104.972 44.788 105.044 45.19 105.188 45.562C105.344 45.934 105.554 46.27 105.818 46.57C106.082 46.858 106.394 47.086 106.754 47.254C107.114 47.41 107.498 47.488 107.906 47.488ZM119.299 49V39.586H121.279V49H119.299ZM119.299 38.038V35.86H121.279V38.038H119.299ZM132.101 49H130.121V43.726C130.121 42.85 129.977 42.208 129.689 41.8C129.413 41.392 128.999 41.188 128.447 41.188C128.063 41.188 127.679 41.284 127.295 41.476C126.923 41.668 126.587 41.932 126.287 42.268C125.987 42.592 125.771 42.97 125.639 43.402V49H123.659V39.586H125.459V41.476C125.699 41.056 126.011 40.696 126.395 40.396C126.791 40.084 127.235 39.844 127.727 39.676C128.219 39.508 128.741 39.424 129.293 39.424C129.857 39.424 130.319 39.526 130.679 39.73C131.051 39.934 131.339 40.216 131.543 40.576C131.759 40.924 131.903 41.332 131.975 41.8C132.059 42.256 132.101 42.742 132.101 43.258V49ZM149.142 45.706C149.142 46.39 148.962 46.978 148.602 47.47C148.254 47.962 147.78 48.34 147.18 48.604C146.58 48.868 145.92 49 145.2 49H139.098V36.22H145.686C146.286 36.22 146.802 36.382 147.234 36.706C147.678 37.018 148.014 37.426 148.242 37.93C148.482 38.422 148.602 38.938 148.602 39.478C148.602 40.102 148.44 40.69 148.116 41.242C147.804 41.782 147.354 42.184 146.766 42.448C147.498 42.664 148.074 43.06 148.494 43.636C148.926 44.2 149.142 44.89 149.142 45.706ZM147.072 45.328C147.072 44.968 146.994 44.644 146.838 44.356C146.694 44.056 146.49 43.816 146.226 43.636C145.974 43.444 145.674 43.348 145.326 43.348H141.114V47.254H145.2C145.56 47.254 145.878 47.17 146.154 47.002C146.442 46.822 146.664 46.588 146.82 46.3C146.988 46 147.072 45.676 147.072 45.328ZM141.114 37.966V41.728H144.822C145.158 41.728 145.458 41.65 145.722 41.494C145.986 41.326 146.196 41.104 146.352 40.828C146.508 40.54 146.586 40.216 146.586 39.856C146.586 39.484 146.514 39.16 146.37 38.884C146.226 38.596 146.028 38.374 145.776 38.218C145.536 38.05 145.254 37.966 144.93 37.966H141.114ZM155.223 49.18C154.479 49.18 153.813 49.054 153.225 48.802C152.637 48.538 152.127 48.178 151.695 47.722C151.275 47.266 150.951 46.75 150.723 46.174C150.495 45.586 150.381 44.962 150.381 44.302C150.381 43.642 150.495 43.018 150.723 42.43C150.951 41.842 151.275 41.326 151.695 40.882C152.127 40.426 152.637 40.072 153.225 39.82C153.825 39.556 154.491 39.424 155.223 39.424C155.955 39.424 156.615 39.556 157.203 39.82C157.803 40.072 158.313 40.426 158.733 40.882C159.165 41.326 159.495 41.842 159.723 42.43C159.951 43.018 160.065 43.642 160.065 44.302C160.065 44.962 159.951 45.586 159.723 46.174C159.495 46.75 159.165 47.266 158.733 47.722C158.313 48.178 157.803 48.538 157.203 48.802C156.615 49.054 155.955 49.18 155.223 49.18ZM152.415 44.32C152.415 44.92 152.541 45.46 152.793 45.94C153.045 46.42 153.381 46.798 153.801 47.074C154.221 47.35 154.695 47.488 155.223 47.488C155.739 47.488 156.207 47.35 156.627 47.074C157.059 46.786 157.401 46.402 157.653 45.922C157.905 45.43 158.031 44.89 158.031 44.302C158.031 43.702 157.905 43.162 157.653 42.682C157.401 42.202 157.059 41.824 156.627 41.548C156.207 41.26 155.739 41.116 155.223 41.116C154.695 41.116 154.221 41.26 153.801 41.548C153.381 41.836 153.045 42.22 152.793 42.7C152.541 43.168 152.415 43.708 152.415 44.32ZM166.051 49.18C165.307 49.18 164.641 49.054 164.053 48.802C163.465 48.538 162.955 48.178 162.523 47.722C162.103 47.266 161.779 46.75 161.551 46.174C161.323 45.586 161.209 44.962 161.209 44.302C161.209 43.642 161.323 43.018 161.551 42.43C161.779 41.842 162.103 41.326 162.523 40.882C162.955 40.426 163.465 40.072 164.053 39.82C164.653 39.556 165.319 39.424 166.051 39.424C166.783 39.424 167.443 39.556 168.031 39.82C168.631 40.072 169.141 40.426 169.561 40.882C169.993 41.326 170.323 41.842 170.551 42.43C170.779 43.018 170.893 43.642 170.893 44.302C170.893 44.962 170.779 45.586 170.551 46.174C170.323 46.75 169.993 47.266 169.561 47.722C169.141 48.178 168.631 48.538 168.031 48.802C167.443 49.054 166.783 49.18 166.051 49.18ZM163.243 44.32C163.243 44.92 163.369 45.46 163.621 45.94C163.873 46.42 164.209 46.798 164.629 47.074C165.049 47.35 165.523 47.488 166.051 47.488C166.567 47.488 167.035 47.35 167.455 47.074C167.887 46.786 168.229 46.402 168.481 45.922C168.733 45.43 168.859 44.89 168.859 44.302C168.859 43.702 168.733 43.162 168.481 42.682C168.229 42.202 167.887 41.824 167.455 41.548C167.035 41.26 166.567 41.116 166.051 41.116C165.523 41.116 165.049 41.26 164.629 41.548C164.209 41.836 163.873 42.22 163.621 42.7C163.369 43.168 163.243 43.708 163.243 44.32ZM179.201 49L176.177 44.662L174.629 46.138V49H172.649V35.86H174.629V44.14L178.985 39.604H181.109L177.455 43.546L181.307 49H179.201ZM185.823 49.18C185.031 49.18 184.281 49.054 183.573 48.802C182.865 48.538 182.259 48.148 181.755 47.632L182.493 46.3C183.033 46.78 183.573 47.128 184.113 47.344C184.665 47.56 185.211 47.668 185.751 47.668C186.303 47.668 186.753 47.566 187.101 47.362C187.449 47.146 187.623 46.834 187.623 46.426C187.623 46.126 187.533 45.904 187.353 45.76C187.173 45.616 186.909 45.49 186.561 45.382C186.225 45.274 185.817 45.154 185.337 45.022C184.665 44.818 184.101 44.608 183.645 44.392C183.189 44.164 182.847 43.888 182.619 43.564C182.391 43.24 182.277 42.826 182.277 42.322C182.277 41.71 182.433 41.188 182.745 40.756C183.057 40.324 183.489 39.994 184.041 39.766C184.605 39.538 185.253 39.424 185.985 39.424C186.669 39.424 187.299 39.532 187.875 39.748C188.463 39.952 188.979 40.276 189.423 40.72L188.577 42.034C188.157 41.65 187.725 41.368 187.281 41.188C186.849 41.008 186.381 40.918 185.877 40.918C185.589 40.918 185.313 40.954 185.049 41.026C184.785 41.086 184.563 41.206 184.383 41.386C184.215 41.554 184.131 41.794 184.131 42.106C184.131 42.358 184.203 42.562 184.347 42.718C184.491 42.874 184.707 43.006 184.995 43.114C185.283 43.222 185.637 43.342 186.057 43.474C186.789 43.69 187.413 43.906 187.929 44.122C188.445 44.326 188.841 44.596 189.117 44.932C189.405 45.256 189.549 45.706 189.549 46.282C189.549 47.194 189.207 47.908 188.523 48.424C187.851 48.928 186.951 49.18 185.823 49.18ZM191.43 51.214C191.61 51.238 191.784 51.262 191.952 51.286C192.132 51.322 192.276 51.34 192.384 51.34C192.588 51.34 192.762 51.274 192.906 51.142C193.062 51.022 193.218 50.794 193.374 50.458C193.53 50.122 193.722 49.636 193.95 49L190.08 39.586H192.15L195.03 46.984L197.586 39.586H199.494L195.228 51.178C195.096 51.526 194.904 51.844 194.652 52.132C194.4 52.432 194.088 52.666 193.716 52.834C193.344 53.002 192.906 53.086 192.402 53.086C192.258 53.086 192.108 53.074 191.952 53.05C191.796 53.026 191.622 52.99 191.43 52.942V51.214Z" fill="#BBACF2"/>
<path d="M49.912 80.96V98H47.2V90.488H38.608V98H35.92V80.96H38.608V88.088H47.2V80.96H49.912ZM52.3673 94.328C52.3673 93.528 52.5913 92.832 53.0393 92.24C53.5033 91.632 54.1353 91.168 54.9353 90.848C55.7353 90.512 56.6633 90.344 57.7193 90.344C58.2793 90.344 58.8473 90.384 59.4233 90.464C60.0153 90.544 60.5353 90.672 60.9833 90.848V90.056C60.9833 89.176 60.7193 88.488 60.1913 87.992C59.6633 87.496 58.9033 87.248 57.9113 87.248C57.2073 87.248 56.5433 87.376 55.9193 87.632C55.2953 87.872 54.6313 88.216 53.9273 88.664L53.0393 86.888C53.8713 86.328 54.7033 85.912 55.5353 85.64C56.3833 85.368 57.2713 85.232 58.1993 85.232C59.8793 85.232 61.1993 85.68 62.1593 86.576C63.1353 87.456 63.6233 88.712 63.6233 90.344V95.024C63.6233 95.328 63.6713 95.544 63.7673 95.672C63.8793 95.8 64.0633 95.872 64.3193 95.888V98C64.0793 98.048 63.8633 98.08 63.6713 98.096C63.4793 98.112 63.3193 98.12 63.1913 98.12C62.6313 98.12 62.2073 97.984 61.9193 97.712C61.6313 97.44 61.4633 97.12 61.4153 96.752L61.3433 96.032C60.7993 96.736 60.1033 97.28 59.2553 97.664C58.4073 98.048 57.5513 98.24 56.6873 98.24C55.8553 98.24 55.1113 98.072 54.4553 97.736C53.7993 97.384 53.2873 96.912 52.9193 96.32C52.5513 95.728 52.3673 95.064 52.3673 94.328ZM60.3593 95.096C60.5513 94.888 60.7033 94.68 60.8153 94.472C60.9273 94.264 60.9833 94.08 60.9833 93.92V92.48C60.5353 92.304 60.0633 92.176 59.5673 92.096C59.0713 92 58.5833 91.952 58.1033 91.952C57.1433 91.952 56.3593 92.144 55.7513 92.528C55.1593 92.912 54.8633 93.44 54.8633 94.112C54.8633 94.48 54.9593 94.832 55.1513 95.168C55.3593 95.504 55.6473 95.776 56.0153 95.984C56.3993 96.192 56.8713 96.296 57.4313 96.296C58.0073 96.296 58.5593 96.184 59.0873 95.96C59.6153 95.736 60.0393 95.448 60.3593 95.096ZM69.9083 98L65.1323 85.448H67.8683L71.4443 95.552L75.0203 85.448H77.5643L72.7883 98H69.9083ZM84.7251 98.24C83.7491 98.24 82.8611 98.072 82.0611 97.736C81.2771 97.384 80.5971 96.912 80.0211 96.32C79.4451 95.712 78.9971 95.024 78.6771 94.256C78.3731 93.472 78.2211 92.64 78.2211 91.76C78.2211 90.576 78.4931 89.496 79.0371 88.52C79.5811 87.528 80.3411 86.736 81.3171 86.144C82.2931 85.536 83.4371 85.232 84.7491 85.232C86.0611 85.232 87.1891 85.536 88.1331 86.144C89.0931 86.736 89.8371 87.52 90.3651 88.496C90.8931 89.472 91.1571 90.52 91.1571 91.64C91.1571 91.832 91.1491 92.016 91.1331 92.192C91.1171 92.352 91.1011 92.488 91.0851 92.6H81.0291C81.0771 93.336 81.2771 93.984 81.6291 94.544C81.9971 95.088 82.4611 95.52 83.0211 95.84C83.5811 96.144 84.1811 96.296 84.8211 96.296C85.5251 96.296 86.1891 96.12 86.8131 95.768C87.4531 95.416 87.8851 94.952 88.1091 94.376L90.3651 95.024C90.0931 95.632 89.6771 96.184 89.1171 96.68C88.5731 97.16 87.9251 97.544 87.1731 97.832C86.4211 98.104 85.6051 98.24 84.7251 98.24ZM80.9571 90.848H88.5411C88.4931 90.128 88.2851 89.496 87.9171 88.952C87.5651 88.392 87.1091 87.96 86.5491 87.656C86.0051 87.336 85.3971 87.176 84.7251 87.176C84.0691 87.176 83.4611 87.336 82.9011 87.656C82.3571 87.96 81.9091 88.392 81.5571 88.952C81.2051 89.496 81.0051 90.128 80.9571 90.848ZM99.016 100.952C99.256 100.984 99.488 101.016 99.712 101.048C99.952 101.096 100.144 101.12 100.288 101.12C100.56 101.12 100.792 101.032 100.984 100.856C101.192 100.696 101.4 100.392 101.608 99.944C101.816 99.496 102.072 98.848 102.376 98L97.216 85.448H99.976L103.816 95.312L107.224 85.448H109.768L104.08 100.904C103.904 101.368 103.648 101.792 103.312 102.176C102.976 102.576 102.56 102.888 102.064 103.112C101.568 103.336 100.984 103.448 100.312 103.448C100.12 103.448 99.92 103.432 99.712 103.4C99.504 103.368 99.272 103.32 99.016 103.256V100.952ZM116.927 98.24C115.935 98.24 115.047 98.072 114.263 97.736C113.479 97.384 112.799 96.904 112.223 96.296C111.663 95.688 111.231 95 110.927 94.232C110.623 93.448 110.471 92.616 110.471 91.736C110.471 90.856 110.623 90.024 110.927 89.24C111.231 88.456 111.663 87.768 112.223 87.176C112.799 86.568 113.479 86.096 114.263 85.76C115.063 85.408 115.951 85.232 116.927 85.232C117.903 85.232 118.783 85.408 119.567 85.76C120.367 86.096 121.047 86.568 121.607 87.176C122.183 87.768 122.623 88.456 122.927 89.24C123.231 90.024 123.383 90.856 123.383 91.736C123.383 92.616 123.231 93.448 122.927 94.232C122.623 95 122.183 95.688 121.607 96.296C121.047 96.904 120.367 97.384 119.567 97.736C118.783 98.072 117.903 98.24 116.927 98.24ZM113.183 91.76C113.183 92.56 113.351 93.28 113.687 93.92C114.023 94.56 114.471 95.064 115.031 95.432C115.591 95.8 116.223 95.984 116.927 95.984C117.615 95.984 118.239 95.8 118.799 95.432C119.375 95.048 119.831 94.536 120.167 93.896C120.503 93.24 120.671 92.52 120.671 91.736C120.671 90.936 120.503 90.216 120.167 89.576C119.831 88.936 119.375 88.432 118.799 88.064C118.239 87.68 117.615 87.488 116.927 87.488C116.223 87.488 115.591 87.68 115.031 88.064C114.471 88.448 114.023 88.96 113.687 89.6C113.351 90.224 113.183 90.944 113.183 91.76ZM125.605 93.128V85.448H128.245V92.6C128.245 93.72 128.445 94.568 128.845 95.144C129.261 95.704 129.861 95.984 130.645 95.984C131.141 95.984 131.621 95.88 132.085 95.672C132.565 95.464 132.997 95.16 133.381 94.76C133.781 94.344 134.101 93.848 134.341 93.272V85.448H136.981V95.024C136.981 95.328 137.037 95.544 137.149 95.672C137.261 95.8 137.445 95.872 137.701 95.888V98C137.429 98.048 137.205 98.08 137.029 98.096C136.853 98.112 136.685 98.12 136.525 98.12C136.045 98.12 135.645 97.992 135.325 97.736C135.005 97.464 134.821 97.12 134.773 96.704L134.725 95.456C134.165 96.368 133.437 97.064 132.541 97.544C131.645 98.008 130.661 98.24 129.589 98.24C128.277 98.24 127.285 97.808 126.613 96.944C125.941 96.08 125.605 94.808 125.605 93.128ZM150.743 98.24C149.687 98.24 148.687 98.072 147.743 97.736C146.799 97.384 145.991 96.864 145.319 96.176L146.303 94.4C147.023 95.04 147.743 95.504 148.463 95.792C149.199 96.08 149.927 96.224 150.647 96.224C151.383 96.224 151.983 96.088 152.447 95.816C152.911 95.528 153.143 95.112 153.143 94.568C153.143 94.168 153.023 93.872 152.783 93.68C152.543 93.488 152.191 93.32 151.727 93.176C151.279 93.032 150.735 92.872 150.095 92.696C149.199 92.424 148.447 92.144 147.839 91.856C147.231 91.552 146.775 91.184 146.471 90.752C146.167 90.32 146.015 89.768 146.015 89.096C146.015 88.28 146.223 87.584 146.639 87.008C147.055 86.432 147.631 85.992 148.367 85.688C149.119 85.384 149.983 85.232 150.959 85.232C151.871 85.232 152.711 85.376 153.479 85.664C154.263 85.936 154.951 86.368 155.543 86.96L154.415 88.712C153.855 88.2 153.279 87.824 152.687 87.584C152.111 87.344 151.487 87.224 150.815 87.224C150.431 87.224 150.063 87.272 149.711 87.368C149.359 87.448 149.063 87.608 148.823 87.848C148.599 88.072 148.487 88.392 148.487 88.808C148.487 89.144 148.583 89.416 148.775 89.624C148.967 89.832 149.255 90.008 149.639 90.152C150.023 90.296 150.495 90.456 151.055 90.632C152.031 90.92 152.863 91.208 153.551 91.496C154.239 91.768 154.767 92.128 155.135 92.576C155.519 93.008 155.711 93.608 155.711 94.376C155.711 95.592 155.255 96.544 154.343 97.232C153.447 97.904 152.247 98.24 150.743 98.24ZM163.756 98.24C162.78 98.24 161.892 98.072 161.092 97.736C160.308 97.384 159.628 96.912 159.052 96.32C158.476 95.712 158.028 95.024 157.708 94.256C157.404 93.472 157.252 92.64 157.252 91.76C157.252 90.576 157.524 89.496 158.068 88.52C158.612 87.528 159.372 86.736 160.348 86.144C161.324 85.536 162.468 85.232 163.78 85.232C165.092 85.232 166.22 85.536 167.164 86.144C168.124 86.736 168.868 87.52 169.396 88.496C169.924 89.472 170.188 90.52 170.188 91.64C170.188 91.832 170.18 92.016 170.164 92.192C170.148 92.352 170.132 92.488 170.116 92.6H160.06C160.108 93.336 160.308 93.984 160.66 94.544C161.028 95.088 161.492 95.52 162.052 95.84C162.612 96.144 163.212 96.296 163.852 96.296C164.556 96.296 165.22 96.12 165.844 95.768C166.484 95.416 166.916 94.952 167.14 94.376L169.396 95.024C169.124 95.632 168.708 96.184 168.148 96.68C167.604 97.16 166.956 97.544 166.204 97.832C165.452 98.104 164.636 98.24 163.756 98.24ZM159.988 90.848H167.572C167.524 90.128 167.316 89.496 166.948 88.952C166.596 88.392 166.14 87.96 165.58 87.656C165.036 87.336 164.428 87.176 163.756 87.176C163.1 87.176 162.492 87.336 161.932 87.656C161.388 87.96 160.94 88.392 160.588 88.952C160.236 89.496 160.036 90.128 159.988 90.848ZM179.209 97.352C178.985 97.464 178.705 97.584 178.369 97.712C178.033 97.84 177.649 97.952 177.217 98.048C176.801 98.144 176.369 98.192 175.921 98.192C175.377 98.192 174.873 98.096 174.409 97.904C173.945 97.712 173.569 97.408 173.281 96.992C173.009 96.56 172.873 96.008 172.873 95.336V87.488H171.217V85.448H172.873V81.32H175.513V85.448H178.249V87.488H175.513V94.496C175.545 94.928 175.681 95.248 175.921 95.456C176.177 95.664 176.489 95.768 176.857 95.768C177.225 95.768 177.577 95.704 177.913 95.576C178.249 95.448 178.497 95.344 178.657 95.264L179.209 97.352ZM186.847 93.128V85.448H189.487V92.6C189.487 93.72 189.687 94.568 190.087 95.144C190.503 95.704 191.103 95.984 191.887 95.984C192.383 95.984 192.863 95.88 193.327 95.672C193.807 95.464 194.239 95.16 194.623 94.76C195.023 94.344 195.343 93.848 195.583 93.272V85.448H198.223V95.024C198.223 95.328 198.279 95.544 198.391 95.672C198.503 95.8 198.687 95.872 198.943 95.888V98C198.671 98.048 198.447 98.08 198.271 98.096C198.095 98.112 197.927 98.12 197.767 98.12C197.287 98.12 196.887 97.992 196.567 97.736C196.247 97.464 196.063 97.12 196.015 96.704L195.967 95.456C195.407 96.368 194.679 97.064 193.783 97.544C192.887 98.008 191.903 98.24 190.831 98.24C189.519 98.24 188.527 97.808 187.855 96.944C187.183 96.08 186.847 94.808 186.847 93.128ZM208.72 98.24C207.712 98.24 206.824 98 206.056 97.52C205.288 97.04 204.68 96.416 204.232 95.648V103.112H201.592V85.448H203.92V87.704C204.4 86.952 205.024 86.352 205.792 85.904C206.56 85.456 207.416 85.232 208.36 85.232C209.224 85.232 210.016 85.408 210.736 85.76C211.456 86.096 212.08 86.568 212.608 87.176C213.136 87.784 213.544 88.48 213.832 89.264C214.136 90.032 214.288 90.848 214.288 91.712C214.288 92.912 214.048 94.008 213.568 95C213.104 95.992 212.448 96.784 211.6 97.376C210.768 97.952 209.808 98.24 208.72 98.24ZM207.856 95.984C208.416 95.984 208.92 95.864 209.368 95.624C209.832 95.384 210.224 95.064 210.544 94.664C210.88 94.264 211.136 93.808 211.312 93.296C211.488 92.784 211.576 92.256 211.576 91.712C211.576 91.136 211.48 90.592 211.288 90.08C211.096 89.568 210.816 89.12 210.448 88.736C210.096 88.352 209.68 88.048 209.2 87.824C208.736 87.6 208.224 87.488 207.664 87.488C207.328 87.488 206.976 87.552 206.608 87.68C206.24 87.808 205.896 87.984 205.576 88.208C205.256 88.432 204.976 88.696 204.736 89C204.496 89.304 204.328 89.624 204.232 89.96V93.248C204.456 93.76 204.752 94.224 205.12 94.64C205.488 95.04 205.912 95.368 206.392 95.624C206.872 95.864 207.36 95.984 207.856 95.984ZM36.016 128.952C36.256 128.984 36.488 129.016 36.712 129.048C36.952 129.096 37.144 129.12 37.288 129.12C37.56 129.12 37.792 129.032 37.984 128.856C38.192 128.696 38.4 128.392 38.608 127.944C38.816 127.496 39.072 126.848 39.376 126L34.216 113.448H36.976L40.816 123.312L44.224 113.448H46.768L41.08 128.904C40.904 129.368 40.648 129.792 40.312 130.176C39.976 130.576 39.56 130.888 39.064 131.112C38.568 131.336 37.984 131.448 37.312 131.448C37.12 131.448 36.92 131.432 36.712 131.4C36.504 131.368 36.272 131.32 36.016 131.256V128.952ZM53.9271 126.24C52.9351 126.24 52.0471 126.072 51.2631 125.736C50.4791 125.384 49.7991 124.904 49.2231 124.296C48.6631 123.688 48.2311 123 47.9271 122.232C47.6231 121.448 47.4711 120.616 47.4711 119.736C47.4711 118.856 47.6231 118.024 47.9271 117.24C48.2311 116.456 48.6631 115.768 49.2231 115.176C49.7991 114.568 50.4791 114.096 51.2631 113.76C52.0631 113.408 52.9511 113.232 53.9271 113.232C54.9031 113.232 55.7831 113.408 56.5671 113.76C57.3671 114.096 58.0471 114.568 58.6071 115.176C59.1831 115.768 59.6231 116.456 59.9271 117.24C60.2311 118.024 60.3831 118.856 60.3831 119.736C60.3831 120.616 60.2311 121.448 59.9271 122.232C59.6231 123 59.1831 123.688 58.6071 124.296C58.0471 124.904 57.3671 125.384 56.5671 125.736C55.7831 126.072 54.9031 126.24 53.9271 126.24ZM50.1831 119.76C50.1831 120.56 50.3511 121.28 50.6871 121.92C51.0231 122.56 51.4711 123.064 52.0311 123.432C52.5911 123.8 53.2231 123.984 53.9271 123.984C54.6151 123.984 55.2391 123.8 55.7991 123.432C56.3751 123.048 56.8311 122.536 57.1671 121.896C57.5031 121.24 57.6711 120.52 57.6711 119.736C57.6711 118.936 57.5031 118.216 57.1671 117.576C56.8311 116.936 56.3751 116.432 55.7991 116.064C55.2391 115.68 54.6151 115.488 53.9271 115.488C53.2231 115.488 52.5911 115.68 52.0311 116.064C51.4711 116.448 51.0231 116.96 50.6871 117.6C50.3511 118.224 50.1831 118.944 50.1831 119.76ZM62.6046 121.128V113.448H65.2446V120.6C65.2446 121.72 65.4446 122.568 65.8446 123.144C66.2606 123.704 66.8606 123.984 67.6446 123.984C68.1406 123.984 68.6206 123.88 69.0846 123.672C69.5646 123.464 69.9966 123.16 70.3806 122.76C70.7806 122.344 71.1006 121.848 71.3406 121.272V113.448H73.9806V123.024C73.9806 123.328 74.0366 123.544 74.1486 123.672C74.2606 123.8 74.4446 123.872 74.7006 123.888V126C74.4286 126.048 74.2046 126.08 74.0286 126.096C73.8526 126.112 73.6846 126.12 73.5246 126.12C73.0446 126.12 72.6446 125.992 72.3246 125.736C72.0046 125.464 71.8206 125.12 71.7726 124.704L71.7246 123.456C71.1646 124.368 70.4366 125.064 69.5406 125.544C68.6446 126.008 67.6606 126.24 66.5886 126.24C65.2766 126.24 64.2846 125.808 63.6126 124.944C62.9406 124.08 62.6046 122.808 62.6046 121.128ZM84.4056 115.728C83.3816 115.744 82.4696 115.976 81.6696 116.424C80.8856 116.872 80.3256 117.504 79.9896 118.32V126H77.3496V113.448H79.7976V116.256C80.2296 115.392 80.7976 114.704 81.5016 114.192C82.2056 113.664 82.9496 113.376 83.7336 113.328C83.8936 113.328 84.0216 113.328 84.1176 113.328C84.2296 113.328 84.3256 113.336 84.4056 113.352V115.728ZM98.7728 115.728C97.7488 115.744 96.8368 115.976 96.0368 116.424C95.2528 116.872 94.6928 117.504 94.3568 118.32V126H91.7168V113.448H94.1648V116.256C94.5968 115.392 95.1648 114.704 95.8688 114.192C96.5728 113.664 97.3168 113.376 98.1008 113.328C98.2608 113.328 98.3888 113.328 98.4848 113.328C98.5968 113.328 98.6928 113.336 98.7728 113.352V115.728ZM106.147 126.24C105.171 126.24 104.283 126.072 103.483 125.736C102.699 125.384 102.019 124.912 101.443 124.32C100.867 123.712 100.419 123.024 100.099 122.256C99.795 121.472 99.643 120.64 99.643 119.76C99.643 118.576 99.915 117.496 100.459 116.52C101.003 115.528 101.763 114.736 102.739 114.144C103.715 113.536 104.859 113.232 106.171 113.232C107.483 113.232 108.611 113.536 109.555 114.144C110.515 114.736 111.259 115.52 111.787 116.496C112.315 117.472 112.579 118.52 112.579 119.64C112.579 119.832 112.571 120.016 112.555 120.192C112.539 120.352 112.523 120.488 112.507 120.6H102.451C102.499 121.336 102.699 121.984 103.051 122.544C103.419 123.088 103.883 123.52 104.443 123.84C105.003 124.144 105.603 124.296 106.243 124.296C106.947 124.296 107.611 124.12 108.235 123.768C108.875 123.416 109.307 122.952 109.531 122.376L111.787 123.024C111.515 123.632 111.099 124.184 110.539 124.68C109.995 125.16 109.347 125.544 108.595 125.832C107.843 126.104 107.027 126.24 106.147 126.24ZM102.379 118.848H109.963C109.915 118.128 109.707 117.496 109.339 116.952C108.987 116.392 108.531 115.96 107.971 115.656C107.427 115.336 106.819 115.176 106.147 115.176C105.491 115.176 104.883 115.336 104.323 115.656C103.779 115.96 103.331 116.392 102.979 116.952C102.627 117.496 102.427 118.128 102.379 118.848ZM113.82 122.328C113.82 121.528 114.044 120.832 114.492 120.24C114.956 119.632 115.588 119.168 116.388 118.848C117.188 118.512 118.116 118.344 119.172 118.344C119.732 118.344 120.3 118.384 120.876 118.464C121.468 118.544 121.988 118.672 122.436 118.848V118.056C122.436 117.176 122.172 116.488 121.644 115.992C121.116 115.496 120.356 115.248 119.364 115.248C118.66 115.248 117.996 115.376 117.372 115.632C116.748 115.872 116.084 116.216 115.38 116.664L114.492 114.888C115.324 114.328 116.156 113.912 116.988 113.64C117.836 113.368 118.724 113.232 119.652 113.232C121.332 113.232 122.652 113.68 123.612 114.576C124.588 115.456 125.076 116.712 125.076 118.344V123.024C125.076 123.328 125.124 123.544 125.22 123.672C125.332 123.8 125.516 123.872 125.772 123.888V126C125.532 126.048 125.316 126.08 125.124 126.096C124.932 126.112 124.772 126.12 124.644 126.12C124.084 126.12 123.66 125.984 123.372 125.712C123.084 125.44 122.916 125.12 122.868 124.752L122.796 124.032C122.252 124.736 121.556 125.28 120.708 125.664C119.86 126.048 119.004 126.24 118.14 126.24C117.308 126.24 116.564 126.072 115.908 125.736C115.252 125.384 114.74 124.912 114.372 124.32C114.004 123.728 113.82 123.064 113.82 122.328ZM121.812 123.096C122.004 122.888 122.156 122.68 122.268 122.472C122.38 122.264 122.436 122.08 122.436 121.92V120.48C121.988 120.304 121.516 120.176 121.02 120.096C120.524 120 120.036 119.952 119.556 119.952C118.596 119.952 117.812 120.144 117.204 120.528C116.612 120.912 116.316 121.44 116.316 122.112C116.316 122.48 116.412 122.832 116.604 123.168C116.812 123.504 117.1 123.776 117.468 123.984C117.852 124.192 118.324 124.296 118.884 124.296C119.46 124.296 120.012 124.184 120.54 123.96C121.068 123.736 121.492 123.448 121.812 123.096ZM127.487 119.736C127.487 118.536 127.727 117.448 128.207 116.472C128.703 115.48 129.375 114.696 130.223 114.12C131.071 113.528 132.047 113.232 133.151 113.232C134.111 113.232 134.975 113.48 135.743 113.976C136.527 114.472 137.135 115.088 137.567 115.824V108.48H140.207V123.024C140.207 123.328 140.263 123.544 140.375 123.672C140.487 123.8 140.671 123.872 140.927 123.888V126C140.431 126.08 140.047 126.12 139.775 126.12C139.279 126.12 138.855 125.976 138.503 125.688C138.167 125.4 137.991 125.056 137.975 124.656L137.951 123.72C137.471 124.52 136.823 125.144 136.007 125.592C135.191 126.024 134.343 126.24 133.463 126.24C132.599 126.24 131.799 126.072 131.063 125.736C130.343 125.4 129.711 124.928 129.167 124.32C128.639 123.712 128.223 123.016 127.919 122.232C127.631 121.448 127.487 120.616 127.487 119.736ZM137.567 121.488V118.2C137.391 117.688 137.103 117.232 136.703 116.832C136.319 116.416 135.879 116.088 135.383 115.848C134.903 115.608 134.423 115.488 133.943 115.488C133.383 115.488 132.871 115.608 132.407 115.848C131.959 116.088 131.567 116.408 131.231 116.808C130.911 117.208 130.663 117.664 130.487 118.176C130.311 118.688 130.223 119.224 130.223 119.784C130.223 120.36 130.319 120.904 130.511 121.416C130.703 121.912 130.975 122.36 131.327 122.76C131.695 123.144 132.111 123.448 132.575 123.672C133.055 123.88 133.575 123.984 134.135 123.984C134.487 123.984 134.839 123.92 135.191 123.792C135.559 123.664 135.903 123.488 136.223 123.264C136.559 123.04 136.839 122.776 137.063 122.472C137.303 122.168 137.471 121.84 137.567 121.488ZM143.561 126V113.448H146.201V126H143.561ZM143.561 111.384V108.48H146.201V111.384H143.561ZM160.629 126H157.989V118.968C157.989 117.8 157.797 116.944 157.413 116.4C157.045 115.856 156.493 115.584 155.757 115.584C155.245 115.584 154.733 115.712 154.221 115.968C153.725 116.224 153.277 116.576 152.877 117.024C152.477 117.456 152.189 117.96 152.013 118.536V126H149.373V113.448H151.773V115.968C152.093 115.408 152.509 114.928 153.021 114.528C153.549 114.112 154.141 113.792 154.797 113.568C155.453 113.344 156.149 113.232 156.885 113.232C157.637 113.232 158.253 113.368 158.733 113.64C159.229 113.912 159.613 114.288 159.885 114.768C160.173 115.232 160.365 115.776 160.461 116.4C160.573 117.008 160.629 117.656 160.629 118.344V126ZM168.661 126.12C167.813 126.12 167.037 125.952 166.333 125.616C165.629 125.264 165.021 124.792 164.509 124.2C164.013 123.608 163.621 122.928 163.333 122.16C163.061 121.392 162.925 120.584 162.925 119.736C162.925 118.84 163.069 118 163.357 117.216C163.645 116.432 164.045 115.744 164.557 115.152C165.085 114.544 165.701 114.072 166.405 113.736C167.109 113.4 167.893 113.232 168.757 113.232C169.765 113.232 170.645 113.472 171.397 113.952C172.165 114.432 172.797 115.056 173.293 115.824V113.448H175.621V125.64C175.621 126.856 175.325 127.888 174.733 128.736C174.157 129.584 173.365 130.232 172.357 130.68C171.349 131.128 170.213 131.352 168.949 131.352C167.557 131.352 166.405 131.112 165.493 130.632C164.581 130.152 163.805 129.496 163.165 128.664L164.653 127.272C165.133 127.944 165.749 128.456 166.501 128.808C167.269 129.16 168.085 129.336 168.949 129.336C169.669 129.336 170.333 129.2 170.941 128.928C171.565 128.672 172.061 128.264 172.429 127.704C172.797 127.16 172.981 126.472 172.981 125.64V123.72C172.533 124.472 171.917 125.064 171.133 125.496C170.349 125.912 169.525 126.12 168.661 126.12ZM169.525 123.984C169.925 123.984 170.309 123.92 170.677 123.792C171.045 123.648 171.381 123.464 171.685 123.24C172.005 123 172.277 122.736 172.501 122.448C172.725 122.144 172.885 121.824 172.981 121.488V118.2C172.773 117.656 172.477 117.184 172.093 116.784C171.709 116.368 171.277 116.048 170.797 115.824C170.317 115.6 169.829 115.488 169.333 115.488C168.757 115.488 168.237 115.616 167.773 115.872C167.325 116.112 166.941 116.44 166.621 116.856C166.301 117.256 166.053 117.712 165.877 118.224C165.701 118.736 165.613 119.264 165.613 119.808C165.613 120.384 165.709 120.92 165.901 121.416C166.109 121.912 166.389 122.36 166.741 122.76C167.093 123.144 167.509 123.448 167.989 123.672C168.469 123.88 168.981 123.984 169.525 123.984ZM41.272 154.24C40.296 154.24 39.408 154.072 38.608 153.736C37.824 153.384 37.144 152.904 36.568 152.296C35.992 151.688 35.544 150.992 35.224 150.208C34.92 149.424 34.768 148.592 34.768 147.712C34.768 146.528 35.032 145.448 35.56 144.472C36.104 143.496 36.856 142.712 37.816 142.12C38.792 141.528 39.944 141.232 41.272 141.232C42.552 141.232 43.664 141.52 44.608 142.096C45.568 142.656 46.272 143.408 46.72 144.352L44.152 145.168C43.864 144.64 43.456 144.232 42.928 143.944C42.416 143.64 41.848 143.488 41.224 143.488C40.52 143.488 39.88 143.672 39.304 144.04C38.744 144.392 38.296 144.888 37.96 145.528C37.64 146.152 37.48 146.88 37.48 147.712C37.48 148.512 37.648 149.24 37.984 149.896C38.32 150.536 38.768 151.048 39.328 151.432C39.904 151.8 40.544 151.984 41.248 151.984C41.68 151.984 42.096 151.912 42.496 151.768C42.912 151.608 43.272 151.4 43.576 151.144C43.88 150.872 44.096 150.576 44.224 150.256L46.816 151.024C46.544 151.648 46.136 152.2 45.592 152.68C45.064 153.16 44.432 153.544 43.696 153.832C42.976 154.104 42.168 154.24 41.272 154.24ZM60.2463 154H57.6063V146.968C57.6063 145.832 57.3983 144.984 56.9823 144.424C56.5663 143.864 55.9823 143.584 55.2303 143.584C54.7663 143.584 54.2863 143.712 53.7903 143.968C53.2943 144.224 52.8543 144.576 52.4703 145.024C52.0863 145.456 51.8063 145.96 51.6303 146.536V154H48.9902V136.48H51.6303V143.968C52.1103 143.12 52.7663 142.456 53.5983 141.976C54.4303 141.48 55.3263 141.232 56.2863 141.232C57.0703 141.232 57.7183 141.368 58.2303 141.64C58.7423 141.912 59.1423 142.288 59.4303 142.768C59.7343 143.232 59.9423 143.776 60.0543 144.4C60.1823 145.008 60.2463 145.656 60.2463 146.344V154ZM62.3986 150.328C62.3986 149.528 62.6226 148.832 63.0706 148.24C63.5346 147.632 64.1666 147.168 64.9666 146.848C65.7666 146.512 66.6946 146.344 67.7506 146.344C68.3106 146.344 68.8786 146.384 69.4546 146.464C70.0466 146.544 70.5666 146.672 71.0146 146.848V146.056C71.0146 145.176 70.7506 144.488 70.2226 143.992C69.6946 143.496 68.9346 143.248 67.9426 143.248C67.2386 143.248 66.5746 143.376 65.9506 143.632C65.3266 143.872 64.6626 144.216 63.9586 144.664L63.0706 142.888C63.9026 142.328 64.7346 141.912 65.5666 141.64C66.4146 141.368 67.3026 141.232 68.2306 141.232C69.9106 141.232 71.2306 141.68 72.1906 142.576C73.1666 143.456 73.6546 144.712 73.6546 146.344V151.024C73.6546 151.328 73.7026 151.544 73.7986 151.672C73.9106 151.8 74.0946 151.872 74.3506 151.888V154C74.1106 154.048 73.8946 154.08 73.7026 154.096C73.5106 154.112 73.3506 154.12 73.2226 154.12C72.6626 154.12 72.2386 153.984 71.9506 153.712C71.6626 153.44 71.4946 153.12 71.4466 152.752L71.3746 152.032C70.8306 152.736 70.1346 153.28 69.2866 153.664C68.4386 154.048 67.5826 154.24 66.7186 154.24C65.8866 154.24 65.1426 154.072 64.4866 153.736C63.8306 153.384 63.3186 152.912 62.9506 152.32C62.5826 151.728 62.3986 151.064 62.3986 150.328ZM70.3906 151.096C70.5826 150.888 70.7346 150.68 70.8466 150.472C70.9586 150.264 71.0146 150.08 71.0146 149.92V148.48C70.5666 148.304 70.0946 148.176 69.5986 148.096C69.1026 148 68.6146 147.952 68.1346 147.952C67.1746 147.952 66.3906 148.144 65.7826 148.528C65.1906 148.912 64.8946 149.44 64.8946 150.112C64.8946 150.48 64.9906 150.832 65.1826 151.168C65.3906 151.504 65.6786 151.776 66.0466 151.984C66.4306 152.192 66.9026 152.296 67.4626 152.296C68.0386 152.296 68.5906 152.184 69.1186 151.96C69.6466 151.736 70.0706 151.448 70.3906 151.096ZM76.8814 136.48H79.5214V150.376C79.5214 151.016 79.6174 151.424 79.8094 151.6C80.0014 151.776 80.2414 151.864 80.5294 151.864C80.8494 151.864 81.1454 151.832 81.4174 151.768C81.7054 151.704 81.9534 151.624 82.1614 151.528L82.5454 153.616C82.1614 153.776 81.7054 153.912 81.1774 154.024C80.6494 154.136 80.1774 154.192 79.7614 154.192C78.8654 154.192 78.1614 153.944 77.6494 153.448C77.1374 152.936 76.8814 152.232 76.8814 151.336V136.48ZM84.1002 136.48H86.7402V150.376C86.7402 151.016 86.8362 151.424 87.0282 151.6C87.2202 151.776 87.4602 151.864 87.7482 151.864C88.0682 151.864 88.3642 151.832 88.6362 151.768C88.9242 151.704 89.1722 151.624 89.3802 151.528L89.7642 153.616C89.3802 153.776 88.9242 153.912 88.3962 154.024C87.8682 154.136 87.3962 154.192 86.9802 154.192C86.0842 154.192 85.3802 153.944 84.8682 153.448C84.3562 152.936 84.1002 152.232 84.1002 151.336V136.48ZM96.9829 154.24C96.0069 154.24 95.1189 154.072 94.3189 153.736C93.5349 153.384 92.8549 152.912 92.2789 152.32C91.7029 151.712 91.2549 151.024 90.9349 150.256C90.6309 149.472 90.4789 148.64 90.4789 147.76C90.4789 146.576 90.7509 145.496 91.2949 144.52C91.8389 143.528 92.5989 142.736 93.5749 142.144C94.5509 141.536 95.6949 141.232 97.0069 141.232C98.3189 141.232 99.4469 141.536 100.391 142.144C101.351 142.736 102.095 143.52 102.623 144.496C103.151 145.472 103.415 146.52 103.415 147.64C103.415 147.832 103.407 148.016 103.391 148.192C103.375 148.352 103.359 148.488 103.343 148.6H93.2869C93.3349 149.336 93.5349 149.984 93.8869 150.544C94.2549 151.088 94.7189 151.52 95.2789 151.84C95.8389 152.144 96.4389 152.296 97.0789 152.296C97.7829 152.296 98.4469 152.12 99.0709 151.768C99.7109 151.416 100.143 150.952 100.367 150.376L102.623 151.024C102.351 151.632 101.935 152.184 101.375 152.68C100.831 153.16 100.183 153.544 99.4309 153.832C98.6789 154.104 97.8629 154.24 96.9829 154.24ZM93.2149 146.848H100.799C100.751 146.128 100.543 145.496 100.175 144.952C99.8229 144.392 99.3669 143.96 98.8069 143.656C98.2629 143.336 97.6549 143.176 96.9829 143.176C96.3269 143.176 95.7189 143.336 95.1589 143.656C94.6149 143.96 94.1669 144.392 93.8149 144.952C93.4629 145.496 93.2629 146.128 93.2149 146.848ZM116.824 154H114.184V146.968C114.184 145.8 113.992 144.944 113.608 144.4C113.24 143.856 112.688 143.584 111.952 143.584C111.44 143.584 110.928 143.712 110.416 143.968C109.92 144.224 109.472 144.576 109.072 145.024C108.672 145.456 108.384 145.96 108.208 146.536V154H105.568V141.448H107.968V143.968C108.288 143.408 108.704 142.928 109.216 142.528C109.744 142.112 110.336 141.792 110.992 141.568C111.648 141.344 112.344 141.232 113.08 141.232C113.832 141.232 114.448 141.368 114.928 141.64C115.424 141.912 115.808 142.288 116.08 142.768C116.368 143.232 116.56 143.776 116.656 144.4C116.768 145.008 116.824 145.656 116.824 146.344V154ZM124.857 154.12C124.009 154.12 123.233 153.952 122.529 153.616C121.825 153.264 121.217 152.792 120.705 152.2C120.209 151.608 119.817 150.928 119.529 150.16C119.257 149.392 119.121 148.584 119.121 147.736C119.121 146.84 119.265 146 119.553 145.216C119.841 144.432 120.241 143.744 120.753 143.152C121.281 142.544 121.897 142.072 122.601 141.736C123.305 141.4 124.089 141.232 124.953 141.232C125.961 141.232 126.841 141.472 127.593 141.952C128.361 142.432 128.993 143.056 129.489 143.824V141.448H131.817V153.64C131.817 154.856 131.521 155.888 130.929 156.736C130.353 157.584 129.561 158.232 128.553 158.68C127.545 159.128 126.409 159.352 125.145 159.352C123.753 159.352 122.601 159.112 121.689 158.632C120.777 158.152 120.001 157.496 119.361 156.664L120.849 155.272C121.329 155.944 121.945 156.456 122.697 156.808C123.465 157.16 124.281 157.336 125.145 157.336C125.865 157.336 126.529 157.2 127.137 156.928C127.761 156.672 128.257 156.264 128.625 155.704C128.993 155.16 129.177 154.472 129.177 153.64V151.72C128.729 152.472 128.113 153.064 127.329 153.496C126.545 153.912 125.721 154.12 124.857 154.12ZM125.721 151.984C126.121 151.984 126.505 151.92 126.873 151.792C127.241 151.648 127.577 151.464 127.881 151.24C128.201 151 128.473 150.736 128.697 150.448C128.921 150.144 129.081 149.824 129.177 149.488V146.2C128.969 145.656 128.673 145.184 128.289 144.784C127.905 144.368 127.473 144.048 126.993 143.824C126.513 143.6 126.025 143.488 125.529 143.488C124.953 143.488 124.433 143.616 123.969 143.872C123.521 144.112 123.137 144.44 122.817 144.856C122.497 145.256 122.249 145.712 122.073 146.224C121.897 146.736 121.809 147.264 121.809 147.808C121.809 148.384 121.905 148.92 122.097 149.416C122.305 149.912 122.585 150.36 122.937 150.76C123.289 151.144 123.705 151.448 124.185 151.672C124.665 151.88 125.177 151.984 125.721 151.984ZM140.67 154.24C139.694 154.24 138.806 154.072 138.006 153.736C137.222 153.384 136.542 152.912 135.966 152.32C135.39 151.712 134.942 151.024 134.622 150.256C134.318 149.472 134.166 148.64 134.166 147.76C134.166 146.576 134.438 145.496 134.982 144.52C135.526 143.528 136.286 142.736 137.262 142.144C138.238 141.536 139.382 141.232 140.694 141.232C142.006 141.232 143.134 141.536 144.078 142.144C145.038 142.736 145.782 143.52 146.31 144.496C146.838 145.472 147.102 146.52 147.102 147.64C147.102 147.832 147.094 148.016 147.078 148.192C147.062 148.352 147.046 148.488 147.03 148.6H136.974C137.022 149.336 137.222 149.984 137.574 150.544C137.942 151.088 138.406 151.52 138.966 151.84C139.526 152.144 140.126 152.296 140.766 152.296C141.47 152.296 142.134 152.12 142.758 151.768C143.398 151.416 143.83 150.952 144.054 150.376L146.31 151.024C146.038 151.632 145.622 152.184 145.062 152.68C144.518 153.16 143.87 153.544 143.118 153.832C142.366 154.104 141.55 154.24 140.67 154.24ZM136.902 146.848H144.486C144.438 146.128 144.23 145.496 143.862 144.952C143.51 144.392 143.054 143.96 142.494 143.656C141.95 143.336 141.342 143.176 140.67 143.176C140.014 143.176 139.406 143.336 138.846 143.656C138.302 143.96 137.854 144.392 137.502 144.952C137.15 145.496 136.95 146.128 136.902 146.848ZM154.961 156.952C155.201 156.984 155.433 157.016 155.657 157.048C155.897 157.096 156.089 157.12 156.233 157.12C156.505 157.12 156.737 157.032 156.929 156.856C157.137 156.696 157.345 156.392 157.553 155.944C157.761 155.496 158.017 154.848 158.321 154L153.161 141.448H155.921L159.761 151.312L163.169 141.448H165.713L160.025 156.904C159.849 157.368 159.593 157.792 159.257 158.176C158.921 158.576 158.505 158.888 158.009 159.112C157.513 159.336 156.929 159.448 156.257 159.448C156.065 159.448 155.865 159.432 155.657 159.4C155.449 159.368 155.217 159.32 154.961 159.256V156.952ZM172.92 154.24C171.944 154.24 171.056 154.072 170.256 153.736C169.472 153.384 168.792 152.912 168.216 152.32C167.64 151.712 167.192 151.024 166.872 150.256C166.568 149.472 166.416 148.64 166.416 147.76C166.416 146.576 166.688 145.496 167.232 144.52C167.776 143.528 168.536 142.736 169.512 142.144C170.488 141.536 171.632 141.232 172.944 141.232C174.256 141.232 175.384 141.536 176.328 142.144C177.288 142.736 178.032 143.52 178.56 144.496C179.088 145.472 179.352 146.52 179.352 147.64C179.352 147.832 179.344 148.016 179.328 148.192C179.312 148.352 179.296 148.488 179.28 148.6H169.224C169.272 149.336 169.472 149.984 169.824 150.544C170.192 151.088 170.656 151.52 171.216 151.84C171.776 152.144 172.376 152.296 173.016 152.296C173.72 152.296 174.384 152.12 175.008 151.768C175.648 151.416 176.08 150.952 176.304 150.376L178.56 151.024C178.288 151.632 177.872 152.184 177.312 152.68C176.768 153.16 176.12 153.544 175.368 153.832C174.616 154.104 173.8 154.24 172.92 154.24ZM169.152 146.848H176.736C176.688 146.128 176.48 145.496 176.112 144.952C175.76 144.392 175.304 143.96 174.744 143.656C174.2 143.336 173.592 143.176 172.92 143.176C172.264 143.176 171.656 143.336 171.096 143.656C170.552 143.96 170.104 144.392 169.752 144.952C169.4 145.496 169.2 146.128 169.152 146.848ZM188.373 153.352C188.149 153.464 187.869 153.584 187.533 153.712C187.197 153.84 186.813 153.952 186.381 154.048C185.965 154.144 185.533 154.192 185.085 154.192C184.541 154.192 184.037 154.096 183.573 153.904C183.109 153.712 182.733 153.408 182.445 152.992C182.173 152.56 182.037 152.008 182.037 151.336V143.488H180.381V141.448H182.037V137.32H184.677V141.448H187.413V143.488H184.677V150.496C184.709 150.928 184.845 151.248 185.085 151.456C185.341 151.664 185.653 151.768 186.021 151.768C186.389 151.768 186.741 151.704 187.077 151.576C187.413 151.448 187.661 151.344 187.821 151.264L188.373 153.352ZM191.809 148.696C191.809 148.136 191.873 147.624 192.001 147.16C192.129 146.696 192.337 146.272 192.625 145.888C192.913 145.488 193.305 145.136 193.801 144.832C194.073 144.672 194.393 144.496 194.761 144.304C195.129 144.096 195.481 143.856 195.817 143.584C196.153 143.312 196.433 142.992 196.657 142.624C196.897 142.256 197.017 141.824 197.017 141.328C197.017 140.8 196.889 140.36 196.633 140.008C196.377 139.64 196.049 139.368 195.649 139.192C195.265 139 194.841 138.904 194.377 138.904C193.881 138.904 193.425 139.008 193.009 139.216C192.593 139.424 192.233 139.688 191.929 140.008C191.625 140.328 191.369 140.664 191.161 141.016L189.433 139.84C189.721 139.184 190.121 138.624 190.633 138.16C191.145 137.696 191.729 137.344 192.385 137.104C193.041 136.864 193.729 136.744 194.449 136.744C195.041 136.744 195.625 136.84 196.201 137.032C196.793 137.208 197.321 137.488 197.785 137.872C198.249 138.256 198.617 138.744 198.889 139.336C199.177 139.912 199.321 140.608 199.321 141.424C199.321 141.984 199.249 142.472 199.105 142.888C198.977 143.288 198.785 143.648 198.529 143.968C198.273 144.288 197.977 144.576 197.641 144.832C197.305 145.072 196.937 145.304 196.537 145.528C196.137 145.768 195.745 146.016 195.361 146.272C194.977 146.512 194.657 146.816 194.401 147.184C194.145 147.552 194.017 148.056 194.017 148.696H191.809ZM191.881 154V150.976H194.065V154H191.881Z" fill="black"/>
</svg>
