<svg width="128" height="128" viewBox="0 0 128 128" fill="none" xmlns="http://www.w3.org/2000/svg">
<circle cx="63.9998" cy="63.9998" r="63.9998" fill="#C3F25C"/>
<path d="M64 0C99.3461 9.27732e-05 128 28.6539 128 64C128 77.6282 123.739 90.2609 116.479 100.641C111.659 81.3385 90.134 66.7822 64.3086 66.7822C38.1935 66.7823 16.4751 81.6669 11.9824 101.292C4.44114 90.7915 3.65263e-05 77.9145 0 64C0 28.6539 28.6539 0 64 0Z" fill="#FEFEFE"/>
<circle cx="64.3093" cy="35.865" r="25.9709" fill="#C3F25C"/>
<path d="M30.2988 67.3616V116.71L46.6092 122.355L62.913 128L80.1356 122.172L97.3517 116.35L97.5224 91.2573L97.6996 66.1646L80.1028 71.1622L62.5126 76.1532L46.4123 71.7575L30.2988 67.3616Z" fill="#BBACF2"/>
<path d="M63.0722 127.955C62.9091 127.956 62.7471 127.937 62.5958 127.897C62.4446 127.857 62.3072 127.797 62.1918 127.722C62.0764 127.646 61.9855 127.557 61.9243 127.458C61.8631 127.359 61.8329 127.253 61.8356 127.146V76.8666C61.8329 76.7599 61.8631 76.6541 61.9243 76.5552C61.9855 76.4563 62.0764 76.3665 62.1918 76.2911C62.3072 76.2157 62.4446 76.1562 62.5958 76.1162C62.7471 76.0762 62.9091 76.0565 63.0722 76.0582C63.4002 76.0582 63.7147 76.1434 63.9466 76.295C64.1786 76.4466 64.3089 76.6522 64.3089 76.8666V127.192C64.3089 127.406 64.1786 127.612 63.9466 127.763C63.7147 127.915 63.4002 128 63.0722 128V127.955Z" fill="#6655D9"/>
</svg>
